<svg xmlns="http://www.w3.org/2000/svg" xmlns:xlink="http://www.w3.org/1999/xlink" version="1.1" id="Layer_1" x="0px" y="0px" style="enable-background:new 0 0 300 300;" xml:space="preserve" viewBox="20.17 86.38 258.56 125.72">
<style type="text/css">
	.st0{fill:#ffffff;}
</style>
<path class="st0" d="M96.61,197.86c-0.39-0.04-0.77-0.1-1.14-0.17c-7.89-1.46-13.7-8.87-16.12-13.68c7.18-4.61,25.67-1.71,26.83,6.3  c0.58,3.95-2.2,6.85-5.2,7.39c-0.93,0.17-1.85,0.25-2.74,0.25C97.69,197.95,97.14,197.92,96.61,197.86 M157.93,164.3  c0.52-3.86,0.17-8.59,0.27-12.87c1.23,4.4,10.33,7.13,10.13,12.32c-0.09,2.51-2.23,3.67-4.58,3.67  C161.46,167.42,158.95,166.32,157.93,164.3 M139.58,160.74c0-4.67,0.03-9.56,0.27-13.96c0.56-0.08,0.54-0.74,1.1-0.82h0.55  c0.49,3.34,0.27,7.47,0.27,11.5c0,3.97,0.62,8.21-0.82,10.95C138.86,167.09,139.58,163.62,139.58,160.74 M149.72,145.95  c0.32-0.04,0.49,0.06,0.55,0.27c1.2,5.94,2.13,16.31-0.55,21.36C149.18,161.1,148.63,152.31,149.72,145.95 M131.76,163.82  c0,0-2-7.17-1.1-18.41l0.75-0.4c0,0,1.3,17.65,0.85,18.81c-0.15,0.38-0.26,0.51-0.33,0.51  C131.79,164.33,131.76,163.82,131.76,163.82 M102.35,144.86c2.65,3.02,2.66,11.12,1.37,15.61  C100.82,157.37,100.08,149.19,102.35,144.86 M82.91,144.58c2.85,3.54,2.08,10.21,1.92,16.15C80.53,158.46,80.5,149,82.91,144.58   M121.24,143.76c3.24,3.42,1.4,11.92,1.92,18.07C118.95,158.77,119.41,149.13,121.24,143.76 M57.72,141.84  c-1.25-1.07-2.36-2.4-3.56-3.01c1.33-3.69,2.31-7.73,3.83-11.23c1.86,4.71,2.03,11.12,3.29,16.43c-0.08,0.03-0.16,0.04-0.25,0.04  C60.17,144.08,58.77,142.74,57.72,141.84 M30.07,105.98c0.59,1.17-1.07,2.55,0.27,3.56c-0.08-1.2,1.08-1.06,2.04-0.91  c0.38,0.06,0.74,0.12,0.97,0.09c-0.14,0.95-1.05,2.13,0,2.74c0.27-1.29,2.09-2.46,2.46-2.74c-0.75,5.44,3.94,8.13,8.21,6.02  c0.67-1.79,2.31-2.62,2.74-4.65c-2.32,0.73-3.98-2.37-5.75-3.83c1.24,0.08,2.6,0.08,3.98,0.07c5.89-0.02,12.18-0.03,11.35,6.5  c-0.88,6.92-5.81,16.5-7.12,22.45c-1.71-2.19-6.26-4.24-5.2-7.39c1.68-0.94,2.02,1.56,3.01,2.19c1.58-11.58-13.73-4.39-7.67,3.56  c-2.55,1.95-5.61,6.41-3.56,10.4c0.75-2.59,3.17-3.41,5.2-1.37c-0.67,1.48-2.12,5.72,0.27,7.12c-0.3-3.04,2.98-3.96,4.93-3.83  c-2.3,6.3-2.51,12.47-6.84,16.43c-4.46,4.07-12.21,3.06-16.98,7.39c-0.1,2.64-2.46,3.02-2.19,6.02c0.3,0.17,0.65-0.36,1.07-0.89  c0.48-0.62,1.04-1.23,1.67-0.75c1.52,2.41-3.25,4.82-0.55,7.39c0.39-3.41,3.07-2.64,6.02-3.56c2.84-0.88,6.1-5.05,10.4-6.57  c5.16-1.82,13.8,0.58,12.32-7.12c-0.91-0.64-3.3,0.2-3.56-1.1c1.1-6.75,2.95-12.74,5.2-18.34c4.87,4.14,10.97,8.42,9.86,15.88  c-0.3,2.04-2.55,3.96-2.46,6.02c0.12,2.77,2.72,3.21,4.38,4.38c3.31,2.32,5.26,5.97,7.12,9.58c-1.24,1.38-3.38,2.79-5.75,2.19  c-0.44-0.54-0.88-1.99-0.27-2.74c-3.26,0.7-4.48,4.47-3.56,8.49c-2.96,0.45-2.33,4.75-3.49,6.59c-0.14,0.23-0.31,0.42-0.52,0.56  c-0.18,0.12-0.39,0.21-0.64,0.25c-0.73,0.12-1.3-0.33-1.77-0.77c-0.58-0.54-1.03-1.08-1.51-0.6c-0.04,0.33-0.04,0.64-0.01,0.93  c0.13,1.22,0.8,2.09,1.75,2.55c1.02,0.5,2.36,0.54,3.73,0.07c0.61,1.03,1.92,1.81,3.39,2.24c0.44,0.13,0.9,0.22,1.36,0.28  c0.82,0.1,1.64,0.09,2.37-0.05c1.94-0.39,2.45-2.61,4.11-2.74c0.25,1.12,0.84,1.9,1.92,2.19v-2.19c3.12-1.44,1.46-7.67,3.83-9.86  c2.22,4.15,7.68,8.4,14.06,10.44c0,0,0,0,0,0c1.37,0.44,2.79,0.77,4.22,0.98c0.62,0.09,1.25,0.16,1.88,0.2  c1.4,0.1,2.8,0.06,4.2-0.12c4.34-0.56,6.82-3.85,6.84-7.94c0.07-12.29-17.12-14.79-29.57-13.14c-1.15-4.14-1.97-8.61-3.29-12.59  c1.84,5.01,7.4,2.4,10.68,0.27c1.14,0.59,1.46,2,3.01,2.19c2.23-0.88,3.7-2.5,5.75-3.56c1.83,5.14,8.05,3.85,10.68,0.27  c1.42,5.37,6.38,2.82,9.04,0.27c1.99,4.54,7.22,3.02,9.86,0c1.56,0.91,2.12,2.81,4.11,3.29c1.78-0.41,3.21-2.63,4.11-3.01  c0.61,1.47-1.35,2.86-0.27,3.01c2.23,0.07,4.56,0.03,6.9,0c3.78-0.06,7.57-0.12,10.9,0.28c-2.43,6.69-6.29,11.96-12.32,15.06  c12.15,1.02,16.96-7.68,20.26-16.43c7.72,6.31,17.8,1.95,17.8-7.12c0-7.24-6.87-9.01-10.13-12.59c5.85-0.57,11.47-4.18,9.31-10.95  c0.14,5.32-6.14,5.11-7.94,1.64c-3.37,2.2-5.6,7-8.21,9.04c-0.19-2.64-0.02-5.63-0.82-7.67c-2.64-1.92-6.4,0.22-8.49,1.37  c-1.97-3.28-7.22-2.08-9.58,0v-4.11c-3.16,1.5-6.14,4.63-8.76,5.75c-0.18-2.37,0.36-5.47-0.27-7.39c-1.28,2.37-2.74,4.56-4.38,6.57  c-2.09-0.99-3.1-3.47-5.75-3.29c-3.29,0.23-7.08,9.16-7.67,15.06c-0.31,3.12,0.86,6.27-0.55,8.21c-0.62-13.62-0.11-28.37-1.1-41.62  c-3.17,2.49-6.53,4.79-9.58,7.39c4.22,0.56,2.7,6.93,2.74,10.95c-1.12-0.02-2.25-0.05-3.01,0.27c-5.17,3.2-7.59,9.78-7.94,17.52  c-0.07,1.52,0.72,4.59-1.1,5.2v-41.62c-3.83,2.47-7.51,5.08-10.95,7.94c1.26,0.2,2.58,0.34,3.01,1.37c0.3,3.17,0.58,6.36,0.55,9.86  c-9.41,0.82-10.12,10.32-11.5,19.17c-1.07-11.29-4-26.44-6.02-38.33c-0.59-3.5-2.68-9.76-1.92-13.14c0.68-3,4.84-3.06,7.12-4.38  c-4.76,0.44-10.36,0.21-15.98-0.01c-3.27-0.13-6.54-0.26-9.65-0.26C39.81,102.42,33.57,103.09,30.07,105.98"/>
<path class="st0" d="M232.17,160.74c-0.21-4.79-0.62-10.29,0-14.51v-0.82h0.82c2.5,5.21,2.08,16.48,0.55,22.45  C231.33,166.64,232.28,163.27,232.17,160.74 M213.83,145.13h0.82c1.22,2.14,0.82,6.01,0.82,9.58c0,3.35,0.72,7.36-1.09,9.03  C213.7,158.03,214.44,150.91,213.83,145.13 M222.59,155.26c-0.16-3.62-0.43-8.29,0.82-10.13h0.82c1.31,6.55,0.99,15.83-0.27,22.18  C222.85,164.64,222.79,159.72,222.59,155.26 M204.79,144.58c2.72,3.03,0.79,10.71,1.37,15.88  C202.75,157.85,202.73,148.71,204.79,144.58 M260.92,168.4c-0.87-7.4-1.75-17.01-0.27-24.37c3.49,3.8-2.39,22.13,3.83,23.82  c2.71,0.74,4.86-0.62,6.02-2.19c-1.26,5.77-4.06,12.6-8.49,16.43c-1.83,1.58-5.01,3.69-7.67,4.11c-6.39,1.01-9.53-4.2-15.06-4.93  c-2.89-0.38-5.24,0.93-8.76,1.37c8.1-8.15,12.38-20.93,10.68-38.06c2.78,5.8,2.29,17.27,0.55,23.82H260.92z M269.41,154.71  c0.16-3.51,0.09-7.2-0.27-10.13c-0.08-0.44,0.26-0.47,0.27-0.82h0.55c2.48,0.7,2.35,4.44,2.19,7.94c-0.19,4.32-0.39,9.85-1.92,12.05  C268.15,161.83,269.26,157.99,269.41,154.71 M250.24,127.88h0.55c2.34,1.94,1.37,5.92,1.37,9.31v21.36c0,3.37,0.81,7.1-1.1,9.31  C250.2,155.3,250.03,140.59,250.24,127.88 M167.01,120.49c-1.1-9.55,14.39-12.01,21.9-7.67c-1.38,3.55-4.55,5.31-8.49,6.3  c-0.56-1.26-0.63-3.02-1.37-4.11c-0.67,0.08-1.46-0.17-2.33-0.42c-1.23-0.35-2.61-0.71-3.97-0.13c0.58,0.7,1.86,0.7,1.92,1.92  c-0.48,1.09-1.6,1.08-2.72,1.08c-1.36-0.01-2.74-0.01-3.03,1.93c0.2,0.18,0.71,0.12,1.29,0.06c0.71-0.07,1.53-0.15,1.99,0.22  c-0.99,2.75,1.6,3.98,2.46,5.75c-0.62,0.14-1.2,0.21-1.76,0.21C169.59,125.63,167.32,123.24,167.01,120.49 M209.17,105.16  c-4.27,0.35-8.81-0.44-13.37-1.23c-4.53-0.79-9.1-1.57-13.46-1.24c-9.1,0.7-18.2,6.46-19.17,15.06c-0.8,7.12,3.76,12.38,9.86,12.05  c6.47-0.36,5.1-7.06,9.58-9.58c-0.09,12.16,0.31,23.84,0.32,35.91v0.93c0,1.22-0.01,2.44-0.02,3.67c0,0.34-0.01,0.69-0.01,1.03  c-0.01,0.47-0.01,0.95-0.02,1.43c-3.11,0.18-4.14,2.43-4.11,5.75c0.63,0.3,1.01-0.25,1.51-0.81c0.48-0.54,1.05-1.07,2.05-0.84  c1.08,1.44,0.96,3.49,0.82,5.48c-0.48,7.07-2.57,16.64-6.57,19.17c-2.6,1.64-7.34,0.76-7.94-2.74c2.15,0.5,3.11-0.51,3.91-1.52  c0.92-1.15,1.65-2.31,3.75-1.22c0.14-3.24-3.21-3-3.56-5.75c-4.16-2.99-8.8,1.17-9.31,5.2c-0.29,2.33,0.11,4.39,1.01,6.11  c0.3,0.58,0.66,1.11,1.07,1.61c0.52,0.64,1.13,1.22,1.8,1.72c0.19,0.14,0.39,0.28,0.6,0.41c2.2,1.43,4.97,2.12,7.85,1.92  c13.43-0.96,17.67-18.78,30.12-19.44c-10.62-1.04-12.33-13.24-11.77-25.46c0.19-4.08-0.83-8.84,0-11.77  c0.84-2.97,6.17-2.27,9.04-1.92c-2.38,2.3-6.59,8.09-7.12,15.06c-0.39,5.15,0.55,11.61,3.01,13.69c2.98,2.52,6.04-1.21,8.21-2.46  c0.92,3.82,6.1,3.86,8.21,1.1c0.1,0.95-2.33,1.88-1.09,2.19c2.4,0.07,4.91,0.03,7.42,0c4.07-0.06,8.13-0.12,11.75,0.28  c-2.55,7.21-6.18,13.35-13.69,15.61c-1.69-0.83-4.47-0.51-5.2,1.1c1.48,0.16,3.15,0.14,3.83,1.09c-7.09,6.53-26.18,8.06-20.53,22.73  c3.21-8.26,12.22-13.44,23.55-11.77c-2.14,2.11-0.57,8.38,1.37,7.67c-0.41-2.42,1.16-4.31,2.19-4.38c0.97,6.06,4.7,13.42,12.05,10.4  c-4.27,0.1-4.96-6.47-3.01-9.31c-0.13,0.86,0.34,1.12,0.82,1.37c-0.09-1,0.3-1.52,0.55-2.19c4.52-1.62,3.85-10.68,8.76-11.77  c1.66-0.37,3.39,0.42,4.93,0.55c8.26,0.7,14.66-3.71,18.62-7.67c6.88-6.88,10.14-16.6,10.68-28.48c0.29-6.35,0.23-11.98,0.27-18.07  c-3.05,1.42-6.07,5.25-9.58,7.12v-6.3c-2.87,1.05-6.34,5.34-9.31,6.3c-0.18-7.48,0.36-15.7-0.27-22.73  c-3.01,2.01-6.38,5.12-9.31,6.3c-0.18-2.19,0.36-5.11-0.27-6.84c-1.82,4.85-3.79,9.53-5.75,14.24c1.66,0.71,4.12,0.62,4.65,2.46  c-1.4,3.08-5.61,4.79-7.67,6.3c0.05-1.42-0.56-2.18-0.82-3.29c-3.12-0.93-5.72,0.79-7.94,1.64c-1.93-3.87-6.96-1.22-9.86,0v-4.11  c-3.08,1.57-6.03,4.74-8.76,5.75c-0.18-1.92,0.36-4.56-0.27-6.02c-1.48,0.2-3.43,5.8-4.65,5.75c-0.86-0.04-2.2-3.32-2.46-3.83  c6.2-1.83,7.8-8.26,10.13-13.96c-2.87,1.4-5.16,3.72-9.58,4.11c-1.34,0.12-2.74-0.01-4.11-0.13c-1.92-0.17-3.81-0.35-5.47,0.13  c-1.18,0.34-2.03,1.91-3.29,1.64c0.67-4.71-1.49-12.26,1.37-14.78c7.38,3.44,17.53,4.74,22.73-1.1c2-2.25,3.23-6.44,4.65-9.58  c1.58-3.46,3-6.82,4.38-9.86C222.19,99.4,218.4,104.4,209.17,105.16"/>
<path class="st0" d="M110.84,104.06c1.96,0.86,0.99,5.85,0.82,7.94h-0.82C110.79,109.69,109.67,105.8,110.84,104.06 M118.5,102.14  c0.93,0.99,1.43,2.4,2.19,3.56c-0.16,1.12-1.43,1.13-1.92,1.92C117.35,106.73,116.78,103.14,118.5,102.14 M94.13,102.69  c-2.39-2.07,0.91-5.13,3.29-4.11c0.66,2.1-0.6,4.12-2.97,4.12C94.35,102.7,94.24,102.7,94.13,102.69 M105.91,97.49h0.82  c-0.5,4.7,1.03,11.43-0.82,14.79C106.26,107.17,105.33,101.92,105.91,97.49 M105.63,91.74c1.77-0.04,2.77,0.7,4.11,1.1  c-1,1.74-1.91,3.57-4.11,4.11V91.74z M101.53,91.47c-2.28,2.74-5.45,4.59-7.94,7.12C93.73,94.8,96.86,91.64,101.53,91.47   M102.9,86.54c-5.83,0.78-11.76,6.71-12.32,11.77c-0.34,3.13,1.24,6.25,3.56,6.57c5.88,0.83,5.65-6.64,7.67-10.4  c-1.2,8.1,2.85,25.4-4.65,26.28c1.2-0.45,1.99-1.29,2.19-2.74c-2.66-2.63-4.38-0.5-4.11,1.63c0.21,1.64,1.6,3.28,4.65,2.75  c2.8-0.48,7.43-5.6,9.86-6.57c-2.47,0.28-3.64-0.74-3.83-2.74c3.23-0.7,6.83-1.02,10.13-1.64c0.66,0.53,0.83,1.54,1.92,1.64  c2.49-1.8,5.49-3.08,7.67-5.2c-1.77,0.41-4.39,2.3-6.3,0.82c1.27-1.65,3.24-2.6,4.93-3.83c-0.99-4.93-6.21-10.54-9.04-4.38  c-1.41,3.07,0.88,7.31-0.27,10.13c-0.55-3.74-0.33-8.25-1.92-10.95c-0.73-0.25-1.33,0-1.79,0.26c-0.44,0.24-0.76,0.47-0.95,0.29  c0.18-2.28-0.36-5.29,0.27-7.12c3.78,1.9,14.52,5.47,13.96-1.92c-4.3,1.45-7.19-0.34-10.51-2.14c-2.47-1.33-5.19-2.67-8.91-2.67  C104.4,86.39,103.67,86.43,102.9,86.54"/>
</svg>